<?xml version="1.0" encoding="utf-8"?>
<!-- Generator: Adobe Illustrator 18.1.1, SVG Export Plug-In . SVG Version: 6.00 Build 0)  -->
<!DOCTYPE svg PUBLIC "-//W3C//DTD SVG 1.1//EN" "http://www.w3.org/Graphics/SVG/1.1/DTD/svg11.dtd">
<svg version="1.1" id="Layer_1" xmlns="http://www.w3.org/2000/svg" xmlns:xlink="http://www.w3.org/1999/xlink" x="0px" y="0px"
	 viewBox="0 0 1806 440.6" enable-background="new 0 0 1806 440.6" xml:space="preserve">
<rect x="671.6" y="158.6" display="none" fill="#5C514C" width="410.1" height="138"/>
<g>
	<g>
		<g>
			<path fill="#FFFFFF" d="M220.3,442.6C97.7,442.6-2,342.9-2,220.3C-2,97.7,97.7-2,220.3-2c122.6,0,222.3,99.7,222.3,222.3
				C442.6,342.9,342.9,442.6,220.3,442.6z M220.3,6.4C102.4,6.4,6.4,102.4,6.4,220.3s95.9,213.9,213.9,213.9
				c117.9,0,213.9-95.9,213.9-213.9S338.2,6.4,220.3,6.4z"/>
			<path fill="#FFFFFF" d="M220.3,440.6C98.8,440.6,0,341.8,0,220.3S98.8,0,220.3,0c121.5,0,220.3,98.8,220.3,220.3
				S341.8,440.6,220.3,440.6z M220.3,4.4c-119,0-215.9,96.8-215.9,215.9s96.8,215.9,215.9,215.9c119,0,215.9-96.8,215.9-215.9
				S339.4,4.4,220.3,4.4z"/>
		</g>
		<g>
			<path fill="#FABA4A" d="M319.9,178.6c-18.1,0-32.8-14.7-32.8-32.8c0-18.1,14.7-32.8,32.8-32.8c18.1,0,32.8,14.7,32.8,32.8
				C352.7,163.8,338,178.6,319.9,178.6z M319.9,121.4c-13.4,0-24.4,10.9-24.4,24.4c0,13.4,10.9,24.4,24.4,24.4
				c13.4,0,24.4-10.9,24.4-24.4C344.3,132.3,333.4,121.4,319.9,121.4z"/>
			<path fill="#FABA4A" d="M319.9,176.6c-17,0-30.8-13.8-30.8-30.8s13.8-30.8,30.8-30.8c17,0,30.8,13.8,30.8,30.8
				S336.9,176.6,319.9,176.6z M319.9,119.4c-14.5,0-26.4,11.8-26.4,26.4c0,14.5,11.8,26.4,26.4,26.4s26.4-11.8,26.4-26.4
				C346.3,131.2,334.5,119.4,319.9,119.4z"/>
		</g>
		<g>
			<path fill="#FFFFFF" d="M256.5,349.4c-2.3,0-4.5-1.9-4.5-4.2V154.6c0-3.2-2.3-4.2-3.1-4.4c-0.5-0.1-0.9-0.2-1.4-0.2
				c-1,0-2.5,0.3-3.6,2l-64.8,110l0,0.1c-3.2,4.6-8.3,7.3-13.7,7.3c-5.5,0-10.6-2.7-13.7-7.2l-0.1-0.1L86.4,151.8
				c-1.1-1.5-2.5-1.8-3.6-1.8c-0.5,0-1.1,0.1-1.6,0.2c-0.8,0.2-3.3,1.3-3.3,4.4v129.6c0,2.3-1.7,4.2-4,4.2c-2.3,0-4-1.9-4-4.2V154.6
				c0-5.8,3.4-10.7,9-12.5c1.3-0.4,2.6-0.6,3.9-0.6c4.3,0,8.1,2.1,10.6,5.7l0.1,0.1l65.1,110.2c1.5,2.1,3.9,3.3,6.6,3.3
				c2.7,0,5.1-1.3,6.7-3.5l64.9-110l0-0.1c2.5-3.7,6.5-5.8,10.8-5.8c1.3,0,2.8,0.2,4.1,0.6c5.6,1.7,9.3,6.6,9.3,12.5v190.5
				C261,347.5,258.8,349.4,256.5,349.4z"/>
			<path fill="#FFFFFF" d="M256.5,347.4c-1.2,0-2.2-1-2.2-2.2V154.6c0-3.6-2.4-5.6-4.7-6.3c-2.2-0.7-5.4-0.4-7.4,2.6l-64.9,110
				c-2.8,4.1-7.3,6.4-12.1,6.4c0,0,0,0,0,0c-4.8,0-9.3-2.4-12-6.3L88.1,150.7c-2-2.8-5.1-3.1-7.4-2.4c-2.3,0.7-4.7,2.7-4.7,6.3
				v129.6c0,1.2-1,2.2-2.2,2.2c-1.2,0-2.2-1-2.2-2.2V154.6c0-5,3.1-9.1,7.8-10.6c4.7-1.5,9.6,0.2,12.4,4.3L157,258.6
				c1.8,2.7,4.9,4.3,8.3,4.3l0,0c3.4,0,6.4-1.6,8.4-4.4l64.9-110c2.9-4.2,7.8-5.9,12.5-4.4c4.7,1.5,7.8,5.6,7.8,10.6v190.5
				C258.8,346.4,257.8,347.4,256.5,347.4z"/>
		</g>
		<g>
			<path fill="#FFFFFF" d="M320,286.5c-2.3,0-4-1.9-4-4.2v-74.1c0-2.3,1.7-4.2,4-4.2c2.3,0,4,1.9,4,4.2v74.1
				C324,284.6,322.3,286.5,320,286.5z"/>
			<path fill="#FFFFFF" d="M319.9,284.5c-1.2,0-2.2-1-2.2-2.2v-74.1c0-1.2,1-2.2,2.2-2.2c1.2,0,2.2,1,2.2,2.2v74.1
				C322.2,283.5,321.2,284.5,319.9,284.5z"/>
		</g>
	</g>
	<g>
		<g>
			<g>
				<path fill="#FFFFFF" d="M719,261.8c-2.4,0-4-2-4-4.4V136.8c0-0.8-0.7-1.1-1.1-1.2c-0.1,0-0.4-0.1-0.5-0.1c-0.4,0-0.7,0.2-1,0.5
					l-41.3,70l-0.1,0.1c-2.4,3.4-6.2,5.5-10.2,5.5c-4,0-7.8-2-10.1-5.3l-0.1-0.1l-41.5-70.3c-0.1-0.1-0.3-0.4-0.8-0.4
					c-0.2,0-0.3,0-0.5,0.1c-0.4,0.1-0.8,0.4-0.8,1.2v120.6c0,2.4-2.1,4.4-4.5,4.4c-2.4,0-4.5-2-4.5-4.4V136.8c0-4.5,2.9-8.3,7.2-9.6
					c1-0.3,2.1-0.5,3.1-0.5c3.3,0,6.3,1.6,8.2,4.4l0.1,0.1l41.5,70.3c0.5,0.7,1.6,1.2,2.7,1.2c1.2,0,2.3-0.5,2.9-1.3l41.3-70l0-0.1
					c2-2.9,5-4.5,8.3-4.5c1,0,1.8,0.2,2.8,0.5c4.3,1.3,6.9,5.1,6.9,9.6v120.6C723,259.8,721.4,261.8,719,261.8z"/>
				<path fill="#FFFFFF" d="M719,259.8c-1.3,0-2.4-1.1-2.4-2.4V136.8c0-1.8-1.2-2.8-2.3-3.1c-1.1-0.3-2.6-0.2-3.6,1.3l-41.3,70
					c-2,2.9-5.2,4.6-8.6,4.6c-3.4,0-6.6-1.7-8.5-4.4l-41.5-70.3c-0.9-1.3-2.4-1.4-3.5-1.1c-1.1,0.3-2.3,1.3-2.3,3.1v120.6
					c0,1.3-1.1,2.4-2.4,2.4s-2.4-1.1-2.4-2.4V136.8c0-3.6,2.2-6.6,5.7-7.7c3.4-1.1,7,0.2,9,3.1l41.5,70.3c1.9,2.7,6.9,2.9,8.9-0.1
					l41.3-70c2.1-3.1,5.7-4.3,9.1-3.3c3.4,1.1,5.7,4.1,5.7,7.7v120.6C721.4,258.7,720.4,259.8,719,259.8z"/>
			</g>
			<g>
				<path fill="#FFFFFF" d="M825,264.9c-36.9,0-66.9-31.3-66.9-69.9c0-38.5,30-69.9,66.9-69.9c36.9,0,66.9,31.3,66.9,69.9
					C891.9,233.6,861.9,264.9,825,264.9z M825,134c-32,0-58,27.4-58,61c0,33.7,26,61,58,61c32,0,58-27.4,58-61
					C883.1,161.4,857,134,825,134z"/>
				<path fill="#FFFFFF" d="M825,262.9c-35.8,0-64.9-30.4-64.9-67.9c0-37.4,29.1-67.9,64.9-67.9c35.8,0,64.9,30.4,64.9,67.9
					C889.9,232.5,860.8,262.9,825,262.9z M825,132c-33.1,0-60,28.3-60,63c0,34.8,26.9,63,60,63c33.1,0,60-28.3,60-63
					C885.1,160.3,858.2,132,825,132z"/>
			</g>
			<g>
				<path fill="#FFFFFF" d="M986.6,264.9c-36.9,0-66.9-31.3-66.9-69.9c0-38.5,30-69.9,66.9-69.9c36.9,0,66.9,31.3,66.9,69.9
					C1053.5,233.6,1023.5,264.9,986.6,264.9z M986.6,134c-32,0-58,27.4-58,61c0,33.7,26,61,58,61c32,0,58-27.4,58-61
					C1044.6,161.4,1018.6,134,986.6,134z"/>
				<path fill="#FFFFFF" d="M986.6,262.9c-35.8,0-64.9-30.4-64.9-67.9c0-37.4,29.1-67.9,64.9-67.9c35.8,0,64.9,30.4,64.9,67.9
					C1051.5,232.5,1022.4,262.9,986.6,262.9z M986.6,132c-33.1,0-60,28.3-60,63c0,34.8,26.9,63,60,63c33.1,0,60-28.3,60-63
					C1046.6,160.3,1019.7,132,986.6,132z"/>
			</g>
			<g>
				<path fill="#FFFFFF" d="M1186.6,261.8c-3.4,0-6.6-1.5-8.7-4.2l-0.1-0.1l-77.3-120.7c-0.4-0.4-0.9-0.6-1.6-0.6
					c-0.3,0-0.8,0.1-1.1,0.2c-0.5,0.2-1.8,0.7-1.8,2.3v67.5c0,2.4-1.6,4.4-4,4.4s-4-2-4-4.4v-67.5c0-4.8,2.7-9,7.3-10.6
					c1.2-0.4,2.4-0.7,3.7-0.7c3.4,0,6.5,1.5,8.7,4.2l0,0.1l77.3,120.7c0.4,0.4,0.9,0.6,1.6,0.6c0.3,0,0.6-0.1,0.9-0.2
					c0.4-0.1,1.6-0.7,1.6-2.3V131.9c0-2.4,2.1-4.4,4.5-4.4s4.5,2,4.5,4.4v118.7c0,4.8-3,9-7.6,10.6
					C1189.2,261.6,1187.9,261.8,1186.6,261.8z"/>
				<path fill="#FFFFFF" d="M1186.6,259.8c-2.7,0-5.3-1.2-7.1-3.5l-77.3-120.8c-1.3-1.6-3.3-1.7-4.8-1.2c-1.4,0.5-3,1.9-3,4.2v67.5
					c0,1.3-1.1,2.4-2.4,2.4c-1.3,0-2.4-1.1-2.4-2.4v-67.5c0-4,2.4-7.4,6.2-8.7c3.7-1.3,7.8-0.2,10.3,2.9l77.3,120.8
					c1.3,1.6,3.3,1.7,4.8,1.2c1.4-0.5,3-1.9,3-4.2V131.9c0-1.3,1.1-2.4,2.4-2.4c1.3,0,2.4,1.1,2.4,2.4v118.7c0,4-2.4,7.4-6.2,8.7
					C1188.7,259.7,1187.6,259.8,1186.6,259.8z"/>
			</g>
			<g>
				<path fill="#FFFFFF" d="M1656.8,261.8c-3.4,0-6.6-1.5-8.7-4.2l-0.1-0.1l-77.3-120.7c-0.4-0.4-0.9-0.6-1.6-0.6
					c-0.3,0-0.4,0.1-0.7,0.2c-0.5,0.2-1.4,0.7-1.4,2.3v67.5c0,2.4-2.1,4.4-4.5,4.4s-4.5-2-4.5-4.4v-67.5c0-4.8,2.8-9,7.4-10.6
					c1.2-0.4,2.4-0.7,3.7-0.7c3.4,0,6.5,1.5,8.7,4.2l0.1,0.1l77.3,120.7c0.4,0.4,0.9,0.6,1.6,0.6c0.3,0,0.5-0.1,0.8-0.2
					c0.5-0.2,1.5-0.7,1.5-2.3V131.9c0-2.4,2.1-4.4,4.5-4.4s4.5,2,4.5,4.4v118.7c0,4.8-2.9,9-7.5,10.6
					C1659.3,261.6,1658.1,261.8,1656.8,261.8z"/>
				<path fill="#FFFFFF" d="M1656.8,259.8c-2.7,0-5.3-1.2-7.1-3.5l-77.3-120.8c-1.3-1.6-3.3-1.7-4.8-1.2c-1.4,0.5-3,1.9-3,4.2v67.5
					c0,1.3-1.1,2.4-2.4,2.4s-2.4-1.1-2.4-2.4v-67.5c0-4,2.4-7.4,6.2-8.7c3.7-1.3,7.8-0.2,10.3,2.9l77.3,120.8
					c1.3,1.6,3.3,1.7,4.8,1.2c1.4-0.5,3-1.9,3-4.2V131.9c0-1.3,1.1-2.4,2.4-2.4c1.3,0,2.4,1.1,2.4,2.4v118.7c0,4-2.4,7.4-6.2,8.7
					C1658.9,259.7,1657.8,259.8,1656.8,259.8z"/>
			</g>
			<g>
				<path fill="#FFFFFF" d="M1282.1,263.9c-18.3,0-35.4-7-52.4-21.5c-1.9-1.6-2.1-4.4-0.5-6.2c0.8-1,2.1-1.6,3.4-1.6
					c1,0,2.1,0.4,2.9,1.1c15.3,13,30.6,19.4,46.8,19.4c2.2,0,4.5-0.1,6.8-0.4c12.2-1.3,27.2-8.5,28.9-24.4
					c2.3-21.5-14.8-25.6-36.4-30.8l-5.4-1.3c-21-5.2-42.2-13.6-40.9-36.5c0.7-11.8,5.4-20.9,14.1-27.2c9.4-6.8,21.1-8.2,29.3-8.2
					c6.5,0,13.4,0.9,19.5,2.6c9.7,2.7,18,8.7,24.8,14.3c1.9,1.5,2.2,4.3,0.6,6.2c-0.8,1-2.1,1.6-3.4,1.6c-1,0-2-0.4-2.8-1
					c-6.1-5-13.4-10.4-21.5-12.6c-5.4-1.5-11.5-2.3-17.3-2.3c-6.8,0-16.5,1.1-24.1,6.6c-6.4,4.6-9.9,11.5-10.4,20.5
					c-0.9,16.4,15.9,22.9,34.2,27.4l5.4,1.3c21.7,5.2,46.2,11.1,43.1,40.3c-1.9,17.4-16.3,30.1-36.7,32.3
					C1287.3,263.8,1284.7,263.9,1282.1,263.9z"/>
				<path fill="#FFFFFF" d="M1282.1,261.9c-17.8,0-34.6-6.9-51.1-21c-1-0.9-1.1-2.4-0.3-3.4c0.9-1,2.4-1.1,3.4-0.3
					c17.8,15.2,35.9,21.5,55.1,19.5c13-1.4,28.8-9.1,30.6-26.2c2.5-23.2-16.2-27.7-37.9-32.9l-5.4-1.3c-20.2-5-40.6-13-39.4-34.4
					c0.6-11.2,5.1-19.8,13.3-25.7c13.6-9.7,33.9-8.9,47.1-5.3c9.4,2.6,17.4,8.5,24,13.9c1,0.8,1.2,2.4,0.3,3.4
					c-0.8,1-2.4,1.2-3.4,0.3c-6.2-5.1-13.8-10.7-22.3-13c-12.2-3.4-30.8-4.2-43,4.6c-6.9,5-10.7,12.4-11.3,22
					c-1,17.8,16.6,24.7,35.7,29.5l5.4,1.3c21.9,5.3,44.5,10.7,41.6,38.1c-1.8,16.4-15.5,28.4-34.9,30.5
					C1287.2,261.8,1284.6,261.9,1282.1,261.9z"/>
			</g>
			<g>
				<path fill="#FFFFFF" d="M1364.5,262.7c-2.4,0-4.5-2-4.5-4.4V131.9c0-2.4,2.1-4.4,4.5-4.4s4.5,2,4.5,4.4v126.3
					C1369,260.7,1366.9,262.7,1364.5,262.7z"/>
				<path fill="#FFFFFF" d="M1364.4,260.7c-1.3,0-2.4-1.1-2.4-2.4V131.9c0-1.3,1.1-2.4,2.4-2.4c1.3,0,2.4,1.1,2.4,2.4v126.3
					C1366.8,259.6,1365.8,260.7,1364.4,260.7z"/>
			</g>
			<g>
				<path fill="#FFFFFF" d="M1460.5,262.7c-2.4,0-4.5-2-4.5-4.4V131.9c0-2.4,2.1-4.4,4.5-4.4s4.5,2,4.5,4.4v126.3
					C1465,260.7,1462.9,262.7,1460.5,262.7z"/>
				<path fill="#FFFFFF" d="M1460.4,260.7c-1.3,0-2.4-1.1-2.4-2.4V131.9c0-1.3,1.1-2.4,2.4-2.4c1.3,0,2.4,1.1,2.4,2.4v126.3
					C1462.8,259.6,1461.7,260.7,1460.4,260.7z"/>
			</g>
			<g>
				<path fill="#FFFFFF" d="M1511.5,262.7c-2.4,0-4.5-2-4.5-4.4V131.9c0-2.4,2.1-4.4,4.5-4.4s4.5,2,4.5,4.4v126.3
					C1516,260.7,1513.9,262.7,1511.5,262.7z"/>
				<path fill="#FFFFFF" d="M1511.2,260.7c-1.3,0-2.4-1.1-2.4-2.4V131.9c0-1.3,1.1-2.4,2.4-2.4c1.3,0,2.4,1.1,2.4,2.4v126.3
					C1513.6,259.6,1512.5,260.7,1511.2,260.7z"/>
			</g>
			<g>
				<path fill="#FFFFFF" d="M1364.4,199.8c-2.4,0-4.4-2.1-4.4-4.5c0-2.4,2-4.5,4.4-4.5h96c2.4,0,4.4,2.1,4.4,4.5
					c0,2.4-2,4.5-4.4,4.5H1364.4z"/>
				<path fill="#FFFFFF" d="M1460.4,197.5h-96c-1.3,0-2.4-1.1-2.4-2.4s1.1-2.4,2.4-2.4h96c1.3,0,2.4,1.1,2.4,2.4
					S1461.7,197.5,1460.4,197.5z"/>
			</g>
			<g>
				<path fill="#FFFFFF" d="M1721.4,261.8c-7.5,0-13.4-5.8-13.4-13.3V142.1c0-7.5,5.9-13.3,13.4-13.3h82.2c2.4,0,4.4,2.1,4.4,4.5
					c0,2.4-2,4.5-4.4,4.5h-82.2c-2.6,0-4.4,1.7-4.4,4.3v106.4c0,2.6,1.8,5.3,4.4,5.3h82.2c2.4,0,4.4,1.6,4.4,4c0,2.4-2,4-4.4,4
					H1721.4z"/>
				<path fill="#FFFFFF" d="M1803.6,260.1h-82.2c-6.4,0-11.6-5.2-11.6-11.6V142.1c0-6.4,5.2-11.6,11.6-11.6h82.2
					c1.3,0,2.4,1.1,2.4,2.4s-1.1,2.4-2.4,2.4h-82.2c-3.7,0-6.8,3-6.8,6.8v106.4c0,3.7,3,6.8,6.8,6.8h82.2c1.3,0,2.4,1.1,2.4,2.4
					S1804.9,260.1,1803.6,260.1z"/>
			</g>
			<g>
				<path fill="#FFFFFF" d="M1712.3,199.8c-2.4,0-4.4-2.1-4.4-4.5c0-2.4,2-4.5,4.4-4.5h81.8c2.4,0,4.4,2.1,4.4,4.5
					c0,2.4-2,4.5-4.4,4.5H1712.3z"/>
				<path fill="#FFFFFF" d="M1794.1,197.5h-81.8c-1.3,0-2.4-1.1-2.4-2.4s1.1-2.4,2.4-2.4h81.8c1.3,0,2.4,1.1,2.4,2.4
					S1795.4,197.5,1794.1,197.5z"/>
			</g>
		</g>
		<g>
			<g>
				<path fill="#FFFFFF" d="M992,405.4c-2.1,0-4-1.7-4-3.8v-59.8c0-2.1,1.9-3.8,4-3.8c2.1,0,4,1.7,4,3.8v59.8
					C996,403.7,994.1,405.4,992,405.4z"/>
				<path fill="#FFFFFF" d="M991.9,403.4c-1,0-1.8-0.8-1.8-1.8v-59.8c0-1,0.8-1.8,1.8-1.8s1.8,0.8,1.8,1.8v59.8
					C993.7,402.6,992.9,403.4,991.9,403.4z"/>
			</g>
			<g>
				<path fill="#FFFFFF" d="M1068.5,405.4c-2.1,0-3.5-1.7-3.5-3.8v-37.1c0-2.1-0.6-20.3-21.6-20.3c-20.9,0-21.4,19.5-21.4,20.4v37
					c0,2.1-1.9,3.8-4,3.8c-2.1,0-4-1.7-4-3.8v-37.1c0-0.3,0.8-27.9,29.1-27.9c15.1,0,22.1,7.7,25.5,14.1c3.6,6.8,3.4,13.6,3.4,13.8
					v37.1C1072,403.7,1070.6,405.4,1068.5,405.4z"/>
				<path fill="#FFFFFF" d="M1068.6,403.4c-1,0-1.8-0.8-1.8-1.8v-37.1c0-0.9-0.3-22.3-23.7-22.3c-22.8,0-23.4,21.4-23.5,22.3v37
					c0,1-0.8,1.8-1.8,1.8s-1.8-0.8-1.8-1.8v-37.1c0-0.3,0.6-25.9,27.1-25.9c14.1,0,20.8,7.1,23.9,13c3.4,6.4,3.4,12.6,3.4,12.9v37.1
					C1070.4,402.6,1069.6,403.4,1068.6,403.4z"/>
			</g>
			<g>
				<path fill="#FFFFFF" d="M1301,405.4c-2.1,0-4-1.7-4-3.8v-37.1c0-2.1-0.6-20.3-21.6-20.3c-20.9,0-21.4,19.5-21.4,20.4v37
					c0,2.1-1.4,3.8-3.5,3.8c-2.1,0-3.5-1.7-3.5-3.8v-37.1c0-0.3,0.6-27.9,28.8-27.9c15.1,0,22.2,7.7,25.6,14.1
					c3.6,6.8,3.6,13.6,3.6,13.8v37.1C1305,403.7,1303.1,405.4,1301,405.4z"/>
				<path fill="#FFFFFF" d="M1301.1,403.4c-1,0-1.8-0.8-1.8-1.8v-37.1c0-0.9-0.3-22.3-23.7-22.3c-22.8,0-23.4,21.4-23.5,22.3v37
					c0,1-0.8,1.8-1.8,1.8c-1,0-1.8-0.8-1.8-1.8v-37.1c0-0.3,0.6-25.9,27.1-25.9c14.1,0,20.8,7.1,23.9,13c3.4,6.4,3.4,12.6,3.4,12.9
					v37.1C1302.9,402.6,1302.1,403.4,1301.1,403.4z"/>
			</g>
			<g>
				<path fill="#FFFFFF" d="M1096.1,345.8c-2.1,0-3.8-1.9-3.8-4c0-2.1,1.7-4,3.8-4h23.6c2.1,0,3.8,1.9,3.8,4c0,2.1-1.7,4-3.8,4
					H1096.1z"/>
				<path fill="#FFFFFF" d="M1119.7,343.6h-23.6c-1,0-1.8-0.8-1.8-1.8s0.8-1.8,1.8-1.8h23.6c1,0,1.8,0.8,1.8,1.8
					S1120.7,343.6,1119.7,343.6z"/>
			</g>
			<g>
				<path fill="#FFFFFF" d="M1110.9,405.6c-1.2,0-2.6,0-3.8-0.1c-11.5-0.7-15.1-12.3-15.1-18.3v-66.8c0-2.1,1.9-3.8,4-3.8
					s4,1.7,4,3.8v66.7c0,0.1,0.1,2.8,1.2,5.6c1.4,3.3,3.5,5,6.6,5.2c1.1,0.1,2.1,0.1,3.1,0.1c4.4,0,6.2-0.7,6.3-0.8
					c0.6-0.3,1.2-0.5,1.9-0.5c1.3,0,2.5,0.7,3.2,1.8c1.1,1.8,0.6,4-1.1,5.2C1120.3,404.2,1117.5,405.6,1110.9,405.6z"/>
				<path fill="#FFFFFF" d="M1110.9,403.6c-1.1,0-2.2,0-3.5-0.1c-10-0.6-12.9-11-13.1-16.3v-66.8c0-1,0.8-1.8,1.8-1.8
					c1,0,1.8,0.8,1.8,1.8v66.7c0,0.5,0.4,12.2,9.7,12.8c8,0.5,10.5-0.9,10.5-0.9c0.9-0.5,2-0.2,2.5,0.6c0.5,0.8,0.3,1.9-0.5,2.4
					C1119.7,402.2,1117.3,403.6,1110.9,403.6z"/>
			</g>
			<g>
				<path fill="#FFFFFF" d="M1400.2,345.8c-2.1,0-3.8-1.9-3.8-4c0-2.1,1.7-4,3.8-4h23.6c2.1,0,3.8,1.9,3.8,4c0,2.1-1.7,4-3.8,4
					H1400.2z"/>
				<path fill="#FFFFFF" d="M1423.8,343.6h-23.6c-1,0-1.8-0.8-1.8-1.8s0.8-1.8,1.8-1.8h23.6c1,0,1.8,0.8,1.8,1.8
					S1424.8,343.6,1423.8,343.6z"/>
			</g>
			<g>
				<path fill="#FFFFFF" d="M1415,405.6c-1.2,0-2.6,0-3.9-0.1c-11.5-0.7-14.1-12.3-15.1-18.3v-66.8c0-2.1,1.9-3.8,4-3.8
					c2.1,0,4,1.7,4,3.8v66.7c0,0.1,0.1,2.8,1.2,5.6c1.4,3.3,3.5,5,6.6,5.2c1.1,0.1,2.1,0.1,3.1,0.1c4.6,0,6.4-0.8,6.4-0.8
					c0.5-0.3,1.2-0.5,1.8-0.5c1.3,0,2.6,0.7,3.2,1.8c1.1,1.8,0.6,4-1.1,5.2C1424.4,404.2,1421.7,405.6,1415,405.6z"/>
				<path fill="#FFFFFF" d="M1415,403.6c-1.1,0-2.2,0-3.5-0.1c-10-0.6-12.9-11-13.1-16.3v-66.8c0-1,0.8-1.8,1.8-1.8
					c1,0,1.8,0.8,1.8,1.8v66.7c0,0.5,0.4,12.2,9.7,12.8c7.9,0.5,10.5-0.9,10.5-0.9c0.9-0.5,2-0.2,2.5,0.6c0.5,0.8,0.3,1.9-0.5,2.4
					C1423.7,402.3,1421.4,403.6,1415,403.6z"/>
			</g>
			<g>
				<path fill="#FFFFFF" stroke="#1D1D1B" stroke-width="0.6694" stroke-linecap="round" stroke-miterlimit="10" d="M1132.7,370.7"
					/>
				<path fill="#FFFFFF" stroke="#1D1D1B" stroke-width="0.6694" stroke-linecap="round" stroke-miterlimit="10" d="M1132.7,370.7"
					/>
			</g>
			<g>
				<path fill="#FFFFFF" d="M1160.1,406c-23.9-2.7-31.7-20.4-31.1-34.8c0-0.2,0-0.4,0-0.5c0-0.3,0-0.7,0.1-1
					c1.3-15.9,12.6-32.7,31.2-32.7c8.8,0,24.5,3.3,30,25.1c0.8,3,0.1,6.3-1.8,8.7c-1.9,2.5-4.8,4.1-7.9,4.1h-44
					c0.7,13,9.5,22.1,24,23.8c6.8-0.2,12.6-2,16.8-4.8c3.2-2.2,4.4-4.4,4.4-4.4c0.7-1.2,2-2,3.4-2c0.6,0,1.2,0.1,1.8,0.4
					c1.8,1,2.5,3.3,1.6,5.1c-0.3,0.5-6.8,12.6-28.1,13.2l-0.1,0L1160.1,406z M1180.5,366.8c0.8,0,1.5-0.3,1.9-0.9
					c0.4-0.6,0.6-1.3,0.4-2c-3.3-12.8-10.9-19.4-22.6-19.4c-12.8,0-21.1,11.3-23.2,22.3H1180.5z"/>
				<path fill="#FFFFFF" d="M1160.3,404c-22.7-2.5-30-19.2-29.4-32.9c0-0.1,0-0.3,0-0.4c0-0.2,0-0.4,0.1-0.6
					c1.1-15.2,11.6-31.1,29.3-31.1c19.2,0,25.8,14.8,28.1,23.6c0.6,2.4,0.1,4.9-1.4,6.8c-1.5,2-3.9,3.1-6.4,3.1h-46
					c-0.1,12.4,6.6,25.8,25.9,27.9c17.6-0.5,22.9-9.8,23.1-10.2c0.5-0.9,1.6-1.2,2.4-0.7c0.9,0.5,1.2,1.5,0.8,2.4
					C1186.4,392.4,1180.4,403.4,1160.3,404z M1134.7,368.9h45.8c1.4,0,2.7-0.6,3.5-1.7c0.8-1.1,1.1-2.4,0.8-3.7
					c-2.4-9.5-8.6-20.9-24.6-20.9C1145.3,342.6,1136.2,355.8,1134.7,368.9z"/>
			</g>
			<g>
				<path fill="#FFFFFF" stroke="#1D1D1B" stroke-width="0.6694" stroke-linecap="round" stroke-miterlimit="10" d="M1320.8,370.7"
					/>
				<path fill="#FFFFFF" stroke="#1D1D1B" stroke-width="0.6694" stroke-linecap="round" stroke-miterlimit="10" d="M1320.8,370.7"
					/>
			</g>
			<g>
				<path fill="#FFFFFF" d="M1348.2,406c-23.9-2.7-31.7-20.4-31.1-34.8c0-0.2,0-0.4,0-0.5c0-0.3,0-0.7,0.1-1
					c1.2-15.9,12.6-32.7,31.2-32.7c8.8,0,24.5,3.3,30,25.1c0.8,3,0.1,6.3-1.8,8.7c-1.9,2.5-4.8,4.1-7.9,4.1h-44
					c0.7,13,9.5,22.1,24,23.8c6.8-0.2,12.6-2,16.8-4.8c3.2-2.2,4.4-4.4,4.4-4.4c0.7-1.2,2-2,3.4-2c0.6,0,1.2,0.1,1.8,0.4
					c1.8,1,2.5,3.3,1.6,5.1c-0.3,0.5-6.8,12.6-28.1,13.2l-0.1,0L1348.2,406z M1368.6,366.8c0.8,0,1.5-0.3,1.9-0.9
					c0.4-0.6,0.6-1.3,0.4-2c-3.3-12.8-10.9-19.4-22.6-19.4c-12.8,0-21.1,11.3-23.2,22.3H1368.6z"/>
				<path fill="#FFFFFF" d="M1348.4,404c-22.7-2.5-30-19.2-29.4-32.9c0-0.1,0-0.3,0-0.4c0-0.2,0-0.4,0.1-0.6
					c1.1-15.2,11.6-31.1,29.3-31.1c19.2,0,25.8,14.8,28.1,23.6c0.6,2.4,0.1,4.9-1.4,6.8c-1.5,2-3.9,3.1-6.4,3.1h-46
					c-0.1,12.4,6.6,25.8,25.9,27.9c17.6-0.5,22.8-9.8,23.1-10.2c0.5-0.9,1.6-1.2,2.4-0.7c0.9,0.5,1.2,1.5,0.8,2.4
					C1374.5,392.4,1368.5,403.4,1348.4,404z M1322.8,368.9h45.8c1.4,0,2.7-0.6,3.5-1.7c0.8-1.1,1.1-2.4,0.8-3.7
					c-2.4-9.5-8.6-20.9-24.6-20.9C1333.4,342.6,1324.3,355.8,1322.8,368.9z"/>
			</g>
			<g>
				<path fill="#FFFFFF" d="M1208.5,405.4c-2.1,0-3.5-1.7-3.5-3.8v-31c0-0.6-0.2-14.6,10.9-25.8c7.8-7.8,18.3-8.4,18.7-8.5
					c0.1,0,0.1,0,0.2,0c2,0,3.6,1.6,3.8,3.6c0.1,2.1-1.5,3.9-3.6,4c-0.1,0-8.4,0.6-14.1,6.2c-8.7,8.7-9,19.9-9,20.4v31
					C1212,403.7,1210.6,405.4,1208.5,405.4z"/>
				<path fill="#FFFFFF" d="M1208.6,403.4c-1,0-1.8-0.8-1.8-1.8v-31c0-0.5-0.1-13.8,10.4-24.4c7.2-7.2,17.1-7.9,17.5-7.9
					c1-0.1,1.8,0.7,1.9,1.7c0.1,1-0.7,1.8-1.7,1.9c-0.1,0-8.9,0.6-15.1,6.8c-9.5,9.5-9.4,21.7-9.4,21.8v31
					C1210.5,402.6,1209.6,403.4,1208.6,403.4z"/>
			</g>
			<g>
				<path fill="#FABA4A" d="M991.9,332.7c-7.3,0-13.3-5.9-13.3-13.2c0-7.3,5.9-13.2,13.3-13.2c7.3,0,13.2,5.9,13.2,13.2
					C1005.1,326.8,999.2,332.7,991.9,332.7z M991.9,313.8c-3.1,0-5.6,2.5-5.6,5.6c0,3.1,2.5,5.6,5.6,5.6c3.1,0,5.6-2.5,5.6-5.6
					C997.5,316.4,995,313.8,991.9,313.8z"/>
				<path fill="#FABA4A" d="M991.9,330.7c-6.2,0-11.3-5-11.3-11.2c0-6.2,5-11.2,11.3-11.2s11.2,5,11.2,11.2
					C1003.1,325.7,998.1,330.7,991.9,330.7z M991.9,311.8c-4.2,0-7.6,3.4-7.6,7.6s3.4,7.6,7.6,7.6c4.2,0,7.6-3.4,7.6-7.6
					S996.1,311.8,991.9,311.8z"/>
			</g>
		</g>
	</g>
</g>
</svg>
